HIERARCHY
ROOT joint_0
{
	OFFSET 0.000000 0.000000 0.000000
	CHANNELS 6 Xposition Yposition Zposition Zrotation Yrotation Xrotation 
	JOINT joint_1
	{
		OFFSET 0.587158 0.057678 95.682007
		CHANNELS 3 Zrotation Yrotation Xrotation
		JOINT joint_2
		{
			OFFSET -7.116699 -0.219910 87.157959
			CHANNELS 3 Zrotation Yrotation Xrotation
			JOINT joint_3
			{
				OFFSET -5.892822 -0.290222 87.151001
				CHANNELS 3 Zrotation Yrotation Xrotation
				JOINT joint_4
				{
					OFFSET 5.544678 -0.099609 123.768066
					CHANNELS 3 Zrotation Yrotation Xrotation
					JOINT joint_5
					{
						OFFSET 41.981201 4.519775 84.257935
						CHANNELS 3 Zrotation Yrotation Xrotation
						End Site
						{
							OFFSET 0.000000 0.000000 0.000000
						}
					}
				}
				JOINT joint_6
				{
					OFFSET 3.940918 -26.976501 69.308105
					CHANNELS 3 Zrotation Yrotation Xrotation
					JOINT joint_7
					{
						OFFSET 4.776123 -152.592468 -16.842041
						CHANNELS 3 Zrotation Yrotation Xrotation
						JOINT joint_8
						{
							OFFSET 54.421875 -30.424072 -248.864014
							CHANNELS 3 Zrotation Yrotation Xrotation
							JOINT joint_9
							{
								OFFSET 42.120117 -33.387878 -236.524963
								CHANNELS 3 Zrotation Yrotation Xrotation
								End Site
								{
									OFFSET 0.000000 0.000000 0.000000
								}
							}
						}
					}
				}
				JOINT joint_10
				{
					OFFSET 2.312012 26.904114 69.425049
					CHANNELS 3 Zrotation Yrotation Xrotation
					JOINT joint_11
					{
						OFFSET 0.971436 152.197815 -20.626953
						CHANNELS 3 Zrotation Yrotation Xrotation
						JOINT joint_12
						{
							OFFSET 49.954102 28.991455 -249.970093
							CHANNELS 3 Zrotation Yrotation Xrotation
							JOINT joint_13
							{
								OFFSET 48.146973 19.598389 -236.919922
								CHANNELS 3 Zrotation Yrotation Xrotation
								End Site
								{
									OFFSET 0.000000 0.000000 0.000000
								}
							}
						}
					}
				}
			}
		}
	}
	JOINT joint_14
	{
		OFFSET 16.305664 -89.442932 -108.224976
		CHANNELS 3 Zrotation Yrotation Xrotation
		JOINT joint_15
		{
			OFFSET -22.282471 13.437134 -412.904968
			CHANNELS 3 Zrotation Yrotation Xrotation
			JOINT joint_16
			{
				OFFSET -45.426025 14.484802 -445.892029
				CHANNELS 3 Zrotation Yrotation Xrotation
				JOINT joint_17
				{
					OFFSET 173.389404 -9.944031 -76.473001
					CHANNELS 3 Zrotation Yrotation Xrotation
					End Site
					{
						OFFSET 0.000000 0.000000 0.000000
					}
				}
			}
		}
	}
	JOINT joint_18
	{
		OFFSET 13.392822 89.408875 -108.653992
		CHANNELS 3 Zrotation Yrotation Xrotation
		JOINT joint_19
		{
			OFFSET -29.032959 24.483521 -411.977966
			CHANNELS 3 Zrotation Yrotation Xrotation
			JOINT joint_20
			{
				OFFSET -30.530029 28.986328 -446.453018
				CHANNELS 3 Zrotation Yrotation Xrotation
				JOINT joint_21
				{
					OFFSET 170.330078 33.400757 -76.698997
					CHANNELS 3 Zrotation Yrotation Xrotation
					End Site
					{
						OFFSET 0.000000 0.000000 0.000000
					}
				}
			}
		}
	}
}
MOTION
Frames: 14
Frame Time: 0.016667
-2632.964355 966.941833 1058.170044 -6.540797 16.979520 1.224959 -0.905658 -1.274310 3.844548 0.090820 0.347893 -0.845687 0.591672 -0.372804 0.521395 -4.851643 -16.039777 11.981336 0.000000 0.000000 0.000000 -6.570826 -2.983135 -0.887937 -3.851717 -0.137399 -19.201058 -167.026341 -47.470381 -175.046884 0.000000 0.000000 0.000000 7.667958 0.483544 5.487350 26.276533 -0.938647 11.491345 178.561904 -52.383603 156.207922 0.000000 0.000000 0.000000 -0.222813 -28.387633 -16.122848 2.245082 39.263101 6.583980 -1.207772 4.585781 0.067839 0.000000 0.000000 0.000000 -1.435778 -21.439689 3.211379 3.719231 11.524182 -2.039460 2.835035 -2.881037 1.771039 0.000000 0.000000 0.000000 
-2625.306396 970.437866 1057.787964 -7.352649 17.224166 1.243834 -0.893869 -1.180958 3.664104 0.246632 0.286643 -0.767572 0.776903 -0.329098 0.468257 -4.764998 -15.930958 11.785122 0.000000 0.000000 0.000000 -6.110421 -2.977806 -0.869799 -4.188586 -0.565786 -19.370704 -167.131753 -47.864359 -174.926531 0.000000 0.000000 0.000000 7.342256 -0.769914 5.051690 27.295610 -1.576654 11.599423 178.745318 -53.067806 154.391911 0.000000 0.000000 0.000000 -0.073000 -30.491418 -17.387655 2.845403 42.629344 7.926084 -1.419139 4.507776 0.052819 0.000000 0.000000 0.000000 -1.394436 -21.181831 2.795594 4.174413 11.695036 -1.986761 3.289836 -3.484246 2.072385 0.000000 0.000000 0.000000 
-2617.320068 973.146912 1058.051025 -8.242563 17.776337 1.224017 -0.999668 -1.490256 3.492875 0.439761 0.277789 -0.688243 1.038199 -0.335570 0.404188 -4.691317 -15.644611 11.570740 0.000000 0.000000 0.000000 -5.486833 -2.979801 -0.813780 -4.553512 -1.052241 -19.471597 -167.213059 -48.343718 -174.648574 0.000000 0.000000 0.000000 7.211505 -2.010272 4.698432 28.264441 -2.190435 11.572732 178.934093 -54.051620 152.145170 0.000000 0.000000 0.000000 -0.056153 -32.629217 -18.438796 3.260753 45.326891 9.111282 -1.973760 3.591242 -0.166138 0.000000 0.000000 0.000000 -1.253178 -21.187591 2.303858 4.686943 11.671429 -1.748501 3.847181 -3.748696 2.351041 0.000000 0.000000 0.000000 
-2609.373779 974.958374 1058.866943 -9.126404 18.267373 1.127687 -0.985303 -1.658241 3.347086 0.606180 0.268454 -0.634446 1.248913 -0.337819 0.366501 -4.680595 -15.467077 11.507312 0.000000 0.000000 0.000000 -4.959862 -3.203666 -0.685134 -4.834056 -1.554334 -19.516656 -167.243618 -48.997408 -174.430579 0.000000 0.000000 0.000000 7.090702 -3.240583 4.323729 29.179882 -2.863910 11.456431 179.153746 -55.080436 149.910529 0.000000 0.000000 0.000000 0.044181 -34.303354 -19.055314 3.560017 46.552575 9.848467 -2.302598 2.381795 -0.363872 0.000000 0.000000 0.000000 -0.997194 -21.125924 1.905577 5.088053 11.587637 -1.482732 4.288354 -3.744659 2.531651 0.000000 0.000000 0.000000 
-2601.747559 975.709351 1060.475952 -10.032104 18.569524 0.888448 -0.690121 -1.448681 3.240930 0.727555 0.253639 -0.636199 1.361380 -0.319197 0.379558 -4.792791 -15.543475 11.750938 0.000000 0.000000 0.000000 -4.616559 -3.712785 -0.426307 -4.942686 -2.036746 -19.508876 -167.197397 -49.839990 -174.489190 0.000000 0.000000 0.000000 6.947413 -4.458030 3.889868 29.948134 -3.614104 11.245038 179.418804 -56.112300 147.836851 0.000000 0.000000 0.000000 0.333818 -35.284734 -19.059476 3.742862 45.770629 10.074064 -2.059712 1.034789 -0.404821 0.000000 0.000000 0.000000 -0.591838 -20.892551 1.703244 5.317408 11.498879 -1.207704 4.537839 -3.408657 2.574009 0.000000 0.000000 0.000000 
-2594.160400 975.563965 1062.636963 -10.959701 18.818266 0.567926 -0.276714 -1.122897 3.157316 0.833919 0.254560 -0.668865 1.434008 -0.300022 0.416550 -4.968302 -15.720153 12.147171 0.000000 0.000000 0.000000 -4.367030 -4.423963 -0.097078 -4.975685 -2.552530 -19.438879 -167.090116 -50.861949 -174.610948 0.000000 0.000000 0.000000 6.814087 -5.638555 3.449169 30.568852 -4.391078 10.943592 179.710740 -57.213136 145.875059 0.000000 0.000000 0.000000 0.674023 -35.763131 -18.650004 3.705836 43.410764 9.897632 -1.616019 -0.409823 -0.398080 0.000000 0.000000 0.000000 -0.080943 -20.589062 1.607795 5.448054 11.348409 -0.909246 4.683983 -2.810168 2.527006 0.000000 0.000000 0.000000 
-2586.134521 974.908936 1064.532959 -11.796710 19.058627 0.315596 0.058041 -0.918524 3.075905 0.914972 0.278351 -0.688950 1.476543 -0.279195 0.436334 -5.072062 -15.839967 12.400615 0.000000 0.000000 0.000000 -4.201037 -5.326968 0.176025 -5.100121 -3.197610 -19.307964 -166.958259 -52.121223 -174.353002 0.000000 0.000000 0.000000 6.615699 -6.786086 3.021803 31.218540 -5.188395 10.633823 -179.965789 -58.250293 144.109994 0.000000 0.000000 0.000000 0.866444 -35.894305 -18.147711 3.296650 40.115810 9.293658 -1.491816 -1.617032 -0.492343 0.000000 0.000000 0.000000 0.441281 -20.201541 1.513649 5.513750 11.103606 -0.704521 4.756487 -2.225371 2.452513 0.000000 0.000000 0.000000 
-2577.300049 973.952454 1065.944946 -12.471724 19.306282 0.203425 0.244609 -0.942766 2.987927 0.941083 0.311381 -0.669525 1.450306 -0.256083 0.418218 -5.027614 -15.816225 12.351594 0.000000 0.000000 0.000000 -4.137759 -6.488195 0.375875 -5.335363 -4.016176 -19.069255 -166.780932 -53.674131 -173.476561 0.000000 0.000000 0.000000 6.279598 -7.946611 2.593238 32.058406 -6.027044 10.294740 -179.566615 -59.085972 142.472186 0.000000 0.000000 0.000000 0.734447 -35.508316 -17.632519 2.271815 35.522978 8.188647 -1.911804 -2.392071 -0.763666 0.000000 0.000000 0.000000 0.982853 -19.569325 1.319345 5.485567 10.478103 -0.602591 4.745881 -1.666897 2.349233 0.000000 0.000000 0.000000 
-2568.026611 972.486328 1067.093018 -12.899032 19.461426 0.237564 0.363929 -0.910813 2.851006 0.883018 0.266442 -0.613580 1.304869 -0.217339 0.388177 -4.914045 -15.746909 12.167708 0.000000 0.000000 0.000000 -4.154728 -7.837120 0.573333 -5.683019 -4.968352 -18.769328 -166.599133 -55.463056 -172.162745 0.000000 0.000000 0.000000 5.879232 -9.126403 2.133033 33.000720 -6.919491 9.998826 -179.083587 -59.828958 140.914084 0.000000 0.000000 0.000000 0.308046 -34.481192 -17.055945 0.828020 29.598037 6.790646 -2.449156 -2.391655 -1.027167 0.000000 0.000000 0.000000 1.480001 -18.768047 1.070441 5.348166 9.750146 -0.571742 4.633811 -1.080392 2.197304 0.000000 0.000000 0.000000 
-2558.952637 970.271362 1067.816040 -13.107084 19.501201 0.399339 0.449378 -0.672003 2.639624 0.781556 0.152138 -0.537560 1.114317 -0.150899 0.364316 -4.821159 -15.757145 12.036385 0.000000 0.000000 0.000000 -4.175510 -9.182663 0.762344 -6.256144 -6.009001 -18.550554 -166.529863 -57.368320 -170.594510 0.000000 0.000000 0.000000 5.572571 -10.266321 1.666855 33.886600 -7.840616 9.916323 -178.533375 -60.676288 139.481265 0.000000 0.000000 0.000000 -0.173353 -33.344161 -16.510390 -0.460242 23.851695 5.461389 -2.759915 -1.676450 -1.142620 0.000000 0.000000 0.000000 1.797505 -18.235588 0.926210 5.207351 9.743329 -0.686410 4.461962 -0.701941 2.054769 0.000000 0.000000 0.000000 
-2550.296387 967.124878 1068.136963 -13.258383 19.542385 0.561340 0.512259 -0.386185 2.502966 0.697377 0.071347 -0.522770 0.981763 -0.067787 0.343043 -4.770639 -15.918403 12.013040 0.000000 0.000000 0.000000 -4.192316 -10.437347 0.925265 -7.126493 -7.157104 -18.541943 -166.634896 -59.445417 -168.816358 0.000000 0.000000 0.000000 5.473204 -11.379732 1.230899 34.631217 -8.812741 10.085570 -177.923301 -61.789239 138.187527 0.000000 0.000000 0.000000 -0.574345 -32.510522 -15.837109 -1.393847 18.883973 4.029855 -2.884566 -0.852827 -1.163620 0.000000 0.000000 0.000000 1.947942 -18.185695 1.021952 5.135986 10.638736 -0.960924 4.269479 -0.627246 1.956456 0.000000 0.000000 0.000000 
-2541.839111 963.228516 1068.032959 -13.300137 19.523920 0.781430 0.554474 -0.004518 2.370829 0.606069 -0.014883 -0.520339 0.853856 0.034100 0.320046 -4.735322 -16.155838 12.030832 0.000000 0.000000 0.000000 -4.217042 -11.706794 1.060252 -8.147174 -8.389116 -18.609509 -166.820548 -61.622127 -166.785278 0.000000 0.000000 0.000000 5.461626 -12.410204 0.822758 35.227710 -9.787068 10.420143 -177.302484 -63.036101 137.122552 0.000000 0.000000 0.000000 -0.911461 -31.697337 -15.152526 -2.109926 14.221085 2.553146 -2.953124 0.333872 -1.130966 0.000000 0.000000 0.000000 1.982790 -18.451859 1.277150 5.084350 12.242161 -1.399172 4.007293 -0.736090 1.860534 0.000000 0.000000 0.000000 
-2533.562012 958.896362 1067.284058 -13.197181 19.290946 1.161018 0.606111 0.671138 2.051072 0.508106 -0.164784 -0.423607 0.698820 0.175607 0.302061 -4.724463 -16.372111 12.076771 0.000000 0.000000 0.000000 -4.200062 -13.085163 1.144101 -9.140174 -9.588281 -18.494105 -166.984910 -63.589395 -164.571823 0.000000 0.000000 0.000000 5.336279 -13.150596 0.460186 35.603779 -10.594665 10.863733 -176.784028 -64.147124 136.545876 0.000000 0.000000 0.000000 -1.025515 -30.772844 -14.830640 -2.533829 10.247087 1.504191 -2.913967 2.337780 -1.001254 0.000000 0.000000 0.000000 1.921082 -19.027075 1.652429 5.035671 14.815255 -2.096833 3.608923 -0.936834 1.722166 0.000000 0.000000 0.000000 
-2525.385254 954.146545 1065.633057 -13.151957 18.725758 1.575420 0.765319 1.787020 1.748752 0.457139 -0.383321 -0.350619 0.584785 0.366991 0.278569 -4.739196 -16.555175 12.143636 0.000000 0.000000 0.000000 -4.112447 -14.616561 1.103278 -10.103124 -10.680348 -18.049948 -167.133630 -65.181478 -162.183317 0.000000 0.000000 0.000000 4.938445 -13.410117 0.201227 35.776697 -11.095651 11.441213 -176.413954 -64.850281 136.701494 0.000000 0.000000 0.000000 -0.767427 -29.703549 -14.772074 -2.571515 7.056691 0.905697 -2.618198 5.698122 -0.688656 0.000000 0.000000 0.000000 1.854346 -19.842457 2.283813 5.034133 18.449026 -3.096183 3.062643 -1.071381 1.507516 0.000000 0.000000 0.000000 
